<svg width="30" height="30" viewBox="0 0 30 30" fill="none" xmlns="http://www.w3.org/2000/svg">
<g opacity="0.6">
<path d="M11 13.5H7V20.5H11V13.5Z" fill="#9DA6B2"/>
<path d="M19 13.5H15V20.5H19V13.5Z" fill="#9DA6B2"/>
</g>
<g opacity="0.4">
<path d="M15 13.5H11V20.5H15V13.5Z" fill="#9DA6B2"/>
<path d="M23 13.5H19V20.5H23V13.5Z" fill="#9DA6B2"/>
</g>
<path d="M24.75 21.41V24.41H4.75V21.41C4.75 20.86 5.2 20.41 5.75 20.41H23.75C24.3 20.41 24.75 20.86 24.75 21.41Z" fill="#9DA6B2"/>
<path d="M25.75 25.16H3.75C3.34 25.16 3 24.82 3 24.41C3 24 3.34 23.66 3.75 23.66H25.75C26.16 23.66 26.5 24 26.5 24.41C26.5 24.82 26.16 25.16 25.75 25.16ZM24.12 8.16L15.12 4.56C14.92 4.48 14.58 4.48 14.38 4.56L5.38 8.16C5.03 8.3 4.75 8.71 4.75 9.09V12.41C4.75 12.96 5.2 13.41 5.75 13.41H23.75C24.3 13.41 24.75 12.96 24.75 12.41V9.09C24.75 8.71 24.47 8.3 24.12 8.16ZM14.75 10.91C13.92 10.91 13.25 10.24 13.25 9.41C13.25 8.58 13.92 7.91 14.75 7.91C15.58 7.91 16.25 8.58 16.25 9.41C16.25 10.24 15.58 10.91 14.75 10.91Z" fill="#9DA6B2"/>
</svg>
