<svg width="30" height="30" viewBox="0 0 30 30" fill="none" xmlns="http://www.w3.org/2000/svg">
<path d="M24.091 10.4795C23.241 9.53953 21.821 9.06953 19.761 9.06953H19.521V9.02953C19.521 7.34953 19.521 5.26953 15.761 5.26953H14.241C10.481 5.26953 10.481 7.35953 10.481 9.02953V9.07953H10.241C8.17101 9.07953 6.76101 9.54953 5.91101 10.4895C4.92101 11.5895 4.95101 13.0695 5.05101 14.0795L5.06101 14.1495L5.16101 15.1995C5.17101 15.2095 5.19101 15.2295 5.21101 15.2395C5.54101 15.4595 5.88101 15.6795 6.24101 15.8795C6.38101 15.9695 6.53101 16.0495 6.68101 16.1295C8.39101 17.0695 10.271 17.6995 12.181 18.0095C12.271 18.9495 12.681 20.0495 14.871 20.0495C17.061 20.0495 17.491 18.9595 17.561 17.9895C19.601 17.6595 21.571 16.9495 23.351 15.9095C23.411 15.8795 23.451 15.8495 23.501 15.8195C23.961 15.5595 24.391 15.2795 24.811 14.9695C24.8323 14.9583 24.8497 14.9408 24.861 14.9195L24.901 14.5595L24.951 14.0895C24.961 14.0295 24.961 13.9795 24.971 13.9095C25.051 12.8995 25.031 11.5195 24.091 10.4795ZM16.091 17.3295C16.091 18.3895 16.091 18.5495 14.861 18.5495C13.631 18.5495 13.631 18.3595 13.631 17.3395V16.0795H16.091V17.3295ZM11.911 9.06953V9.02953C11.911 7.32953 11.911 6.69953 14.241 6.69953H15.761C18.091 6.69953 18.091 7.33953 18.091 9.02953V9.07953H11.911V9.06953Z" fill="#9DA6B2"/>
<path opacity="0.4" d="M23.5002 15.7984L23.3502 15.8884C21.5624 16.9274 19.6004 17.6322 17.5602 17.9684C17.4802 18.9284 17.0602 20.0284 14.8702 20.0284C12.6802 20.0284 12.2602 18.9384 12.1802 17.9884C10.2702 17.6884 8.39016 17.0584 6.68016 16.1084C6.53016 16.0284 6.38016 15.9484 6.24016 15.8584C5.88016 15.6584 5.54016 15.4384 5.21016 15.2184C5.19016 15.2084 5.17016 15.1884 5.16016 15.1784L5.77016 21.6884C5.98016 23.6784 6.80016 25.7284 11.2002 25.7284H18.8202C23.2202 25.7284 24.0402 23.6784 24.2502 21.6784L24.8802 14.8984C24.8689 14.9197 24.8515 14.9372 24.8302 14.9484C24.4002 15.2584 23.9602 15.5484 23.5002 15.7984Z" fill="#9DA6B2"/>
</svg>
