<svg width="30" height="30" viewBox="0 0 30 30" fill="none" xmlns="http://www.w3.org/2000/svg">
<path d="M15.02 4.5C9.21 4.5 5 9.24 5 14.5C5 16.18 5.49 17.91 6.35 19.49C6.51 19.75 6.53 20.08 6.42 20.39L5.75 22.63C5.6 23.17 6.06 23.57 6.57 23.41L8.59 22.81C9.14 22.63 9.57 22.86 10.081 23.17C11.541 24.03 13.36 24.47 15 24.47C19.96 24.47 25 20.64 25 14.47C25 9.15 20.7 4.5 15.02 4.5Z" fill="#4A5668"/>
<path fill-rule="evenodd" clip-rule="evenodd" d="M14.9802 15.7896C14.2702 15.7796 13.7002 15.2096 13.7002 14.4996C13.7002 13.7996 14.2802 13.2196 14.9802 13.2296C15.6902 13.2296 16.2602 13.7996 16.2602 14.5096C16.2602 15.2096 15.6902 15.7896 14.9802 15.7896ZM10.3698 15.7896C9.66984 15.7896 9.08984 15.2096 9.08984 14.5096C9.08984 13.7996 9.65984 13.2296 10.3698 13.2296C11.0798 13.2296 11.6498 13.7996 11.6498 14.5096C11.6498 15.2096 11.0798 15.7796 10.3698 15.7896ZM18.31 14.5096C18.31 15.2096 18.88 15.7896 19.59 15.7896C20.3 15.7896 20.87 15.2096 20.87 14.5096C20.87 13.7996 20.3 13.2296 19.59 13.2296C18.88 13.2296 18.31 13.7996 18.31 14.5096Z" fill="#122137"/>
</svg>
