<svg width="23" height="22" viewBox="0 0 23 22" fill="none" xmlns="http://www.w3.org/2000/svg">
<path d="M22.7452 8.63208C22.7204 8.52044 22.6719 8.41542 22.603 8.32414C22.5341 8.23286 22.4464 8.15744 22.3459 8.10298L19.9699 6.78523C19.8435 6.52567 19.7037 6.2761 19.5506 6.03651L19.5906 3.32115C19.5915 3.20725 19.5689 3.0944 19.5242 2.98962C19.4796 2.88484 19.4138 2.7904 19.331 2.71219C18.148 1.63958 16.7489 0.832834 15.228 0.346227C15.1188 0.31217 15.0036 0.301679 14.89 0.315446C14.7764 0.329213 14.6671 0.366925 14.5691 0.426091L12.2431 1.8237C11.9536 1.81372 11.6741 1.81372 11.3846 1.8237L9.05855 0.426091C8.96063 0.366925 8.85127 0.329213 8.73769 0.315446C8.62411 0.301679 8.5089 0.31217 8.39968 0.346227C6.87674 0.833204 5.4771 1.6437 4.29669 2.72217C4.21317 2.79769 4.1468 2.89023 4.10203 2.99354C4.05726 3.09686 4.03513 3.20856 4.03713 3.32115L4.08705 6.03651C3.92732 6.2761 3.78756 6.52567 3.6478 6.78523L1.28184 8.10298C1.18002 8.15579 1.09131 8.23072 1.02222 8.32227C0.953119 8.41383 0.905388 8.51968 0.882519 8.63208C0.543067 10.1911 0.543067 11.805 0.882519 13.364C0.907316 13.4756 0.9558 13.5806 1.02469 13.6719C1.09358 13.7632 1.18128 13.8386 1.28184 13.8931L3.65778 15.2108C3.78515 15.4691 3.92851 15.7192 4.08705 15.9596L4.03713 18.6749C4.03622 18.7888 4.0588 18.9017 4.10345 19.0064C4.14811 19.1112 4.21389 19.2057 4.29669 19.2839C5.48134 20.3542 6.87988 21.1607 8.39968 21.6498C8.5089 21.6839 8.62411 21.6944 8.73769 21.6806C8.85127 21.6669 8.96063 21.6291 9.05855 21.57L11.3846 20.1724H12.2431L14.5791 21.57C14.7006 21.6498 14.8431 21.6915 14.9884 21.6898C15.0696 21.6863 15.1501 21.6729 15.228 21.6498C16.751 21.1629 18.1506 20.3524 19.331 19.2739C19.4145 19.1984 19.4809 19.1058 19.5257 19.0025C19.5704 18.8992 19.5926 18.7875 19.5906 18.6749L19.5506 15.9596C19.7004 15.72 19.8401 15.4704 19.9799 15.2108L22.3558 13.8931C22.455 13.8381 22.541 13.7623 22.6082 13.671C22.6754 13.5797 22.7221 13.475 22.7452 13.364C23.0846 11.805 23.0846 10.1911 22.7452 8.63208ZM16.2063 10.998C16.2063 11.8668 15.9487 12.716 15.4661 13.4384C14.9834 14.1607 14.2974 14.7237 13.4948 15.0562C12.6922 15.3886 11.809 15.4756 10.9569 15.3061C10.1049 15.1366 9.32219 14.7183 8.70788 14.104C8.09358 13.4897 7.67524 12.707 7.50575 11.855C7.33627 11.0029 7.42325 10.1197 7.75571 9.3171C8.08817 8.51447 8.65117 7.82846 9.37351 7.34581C10.0958 6.86315 10.9451 6.60554 11.8138 6.60554C12.9788 6.60554 14.0961 7.06832 14.9198 7.89207C15.7436 8.71582 16.2063 9.83307 16.2063 10.998Z" fill="#E6B668"/>
</svg>
