<svg width="30" height="30" viewBox="0 0 30 30" fill="none" xmlns="http://www.w3.org/2000/svg">
<path d="M14.8883 18.54C11.4383 18.54 8.52734 19.1038 8.52734 21.2795C8.52734 23.4562 11.4571 24.0001 14.8883 24.0001C18.3383 24.0001 21.2492 23.4364 21.2492 21.2606C21.2492 19.084 18.3195 18.54 14.8883 18.54Z" fill="#4A5668"/>
<path d="M14.888 16.467C17.2241 16.467 19.0973 14.5831 19.0973 12.2335C19.0973 9.88306 17.2241 8 14.888 8C12.5519 8 10.6787 9.88306 10.6787 12.2335C10.6787 14.5831 12.5519 16.467 14.888 16.467Z" fill="#9DA6B2"/>
<path d="M24.027 13.2197C24.6314 10.8422 22.8594 8.70703 20.603 8.70703C20.3577 8.70703 20.1231 8.73405 19.8939 8.77998C19.8634 8.78718 19.8294 8.80249 19.8115 8.82951C19.7909 8.86373 19.8061 8.90966 19.8285 8.93937C20.5063 9.89577 20.8958 11.0602 20.8958 12.3102C20.8958 13.5079 20.5385 14.6246 19.9118 15.5513C19.8473 15.6467 19.9046 15.7755 20.0183 15.7953C20.1759 15.8232 20.3371 15.8376 20.5018 15.8421C22.1449 15.8854 23.6196 14.8218 24.027 13.2197Z" fill="#9DA6B2"/>
<path d="M25.7489 18.8165C25.448 18.1717 24.7218 17.7295 23.6178 17.5125C23.0967 17.3846 21.6864 17.2045 20.3747 17.2288C20.355 17.2315 20.3442 17.245 20.3424 17.254C20.3397 17.2666 20.3451 17.2882 20.3711 17.3017C20.9773 17.6034 23.3205 18.9155 23.0259 21.6829C23.0134 21.8027 23.1092 21.9063 23.2283 21.8883C23.8049 21.8054 25.2886 21.4848 25.7489 20.4861C26.0032 19.9584 26.0032 19.3451 25.7489 18.8165Z" fill="#4A5668"/>
<path d="M9.98453 8.77998C9.7562 8.73315 9.52071 8.70703 9.27537 8.70703C7.01895 8.70703 5.24695 10.8422 5.85225 13.2197C6.25876 14.8218 7.73349 15.8854 9.37655 15.8421C9.5413 15.8376 9.70337 15.8223 9.86007 15.7953C9.97378 15.7755 10.0311 15.6467 9.96662 15.5513C9.33984 14.6237 8.98257 13.5079 8.98257 12.3102C8.98257 11.0593 9.37297 9.89486 10.0508 8.93937C10.0723 8.90966 10.0884 8.86373 10.0669 8.82951C10.049 8.80159 10.0159 8.78718 9.98453 8.77998Z" fill="#9DA6B2"/>
<path d="M6.26101 17.5127C5.15698 17.7297 4.4317 18.1719 4.13085 18.8167C3.87566 19.3453 3.87566 19.9586 4.13085 20.4872C4.59108 21.4851 6.07476 21.8066 6.6514 21.8885C6.77049 21.9065 6.86541 21.8038 6.85287 21.6832C6.55828 18.9167 8.90155 17.6046 9.50863 17.3029C9.53371 17.2885 9.53908 17.2677 9.53639 17.2542C9.5346 17.2452 9.52475 17.2317 9.50505 17.2299C8.19239 17.2047 6.78303 17.3848 6.26101 17.5127Z" fill="#4A5668"/>
</svg>
