<svg width="30" height="29" viewBox="0 0 30 29" fill="none" xmlns="http://www.w3.org/2000/svg">
<path d="M4.58093 9.59877C5.50028 11.3313 7.30925 12.4375 9.30081 12.4375L19.8956 12.4375C21.8872 12.4375 23.6961 11.3313 24.6155 9.59878C24.8214 9.21129 24.7238 8.72826 24.3809 8.45437L16.4985 2.14951C15.9464 1.70364 15.2776 1.48177 14.6088 1.48177C14.6046 1.48177 14.6014 1.48177 14.5982 1.48177C14.595 1.48177 14.5908 1.48177 14.5876 1.48177C13.9188 1.48177 13.25 1.70364 12.6979 2.14951L4.81555 8.45437C4.47265 8.72826 4.37498 9.21129 4.58093 9.59877Z" fill="#9DA6B2"/>
<path d="M4.05873 11.3419C5.0516 13.0884 6.91607 14.1955 8.96328 14.1955L20.1497 14.1955C22.2428 14.1955 24.1448 13.0383 25.1196 11.2236C25.2026 11.4882 25.2461 11.7664 25.2461 12.0496V21.8144C25.2461 22.8335 24.8376 23.8108 24.1108 24.5305C23.384 25.2502 22.3986 25.6532 21.3721 25.6505H19.1742C18.4132 25.6451 17.7992 25.031 17.7992 24.2755V20.8479C17.7992 19.9729 17.0848 19.2636 16.2035 19.2636H12.9818C12.1044 19.269 11.3961 19.9767 11.3961 20.8479V24.2855H11.356C11.356 24.6492 11.2097 24.998 10.9497 25.2543C10.6897 25.5106 10.3374 25.6532 9.97095 25.6505H7.8232C5.68366 25.6505 3.94922 23.9286 3.94922 21.8044V12.0496C3.95491 11.8074 3.99231 11.5698 4.05873 11.3419Z" fill="#28364B"/>
</svg>
