<svg width="50" height="50" viewBox="0 0 50 50" fill="none" xmlns="http://www.w3.org/2000/svg">
<path fill-rule="evenodd" clip-rule="evenodd" d="M33.1283 17.8432C32.4403 17.2401 31.4511 17.2539 30.8835 17.4289C31.2552 16.9726 32.1216 16.5981 32.3765 16.5527C32.5707 16.6256 33.1283 17.1983 33.1283 17.8432ZM35.3246 15.3458C34.8722 12.9258 29.2484 14.5295 26.4161 13.5016C26.362 14.2071 27.2881 15.3374 28.174 15.7556C26.6598 17.07 25.3004 19.718 25.0257 22.9531C24.7523 19.718 23.3927 17.07 21.8785 15.7557C22.7643 15.3376 23.6913 14.2072 23.6363 13.5019C20.8042 14.5298 15.1802 12.9262 14.727 15.3462C14.6317 15.8586 14.8781 16.6389 15.1443 16.8635C15.1919 16.7011 15.4406 16.1701 16.2245 16.0511C20.1867 15.4524 23.4947 21.559 20.5086 24.028C20.4631 24.066 20.4889 24.135 20.5503 24.135H29.503C29.5637 24.135 29.5895 24.0658 29.5445 24.0282C26.5577 21.5593 29.8657 15.4527 33.828 16.0514C34.6124 16.1704 34.8605 16.7013 34.9083 16.8636C35.1744 16.6391 35.4207 15.8582 35.3246 15.3458ZM36.2884 9.79192C36.2171 9.56327 38.5404 9.55751 38.5404 11.0118C38.5404 11.9862 37.1506 12.4477 37.1506 13.4591C37.1506 13.93 37.6574 14.2754 37.8129 14.2754C37.4548 12.6519 38.9349 13.5016 39.3347 13.805C38.5404 11.6217 40.3282 11.6354 40.1522 10.6343C40.0297 9.93485 38.4756 10.146 37.9133 9.79192C36.9153 9.16379 35.7346 6.71906 34.9565 9.16379C36.407 10.5103 35.563 12.4926 33.7215 12.4926C33.7215 12.4926 33.7113 12.7832 33.7282 12.8062C35.9245 12.6988 36.6901 11.0845 36.2884 9.79192ZM10.6642 13.805C11.0638 13.5016 12.5437 12.6519 12.1866 14.2754C12.3413 14.2754 12.8481 13.93 12.8481 13.4591C12.8481 12.4477 11.4583 11.9862 11.4583 11.0118C11.4583 9.55751 13.7815 9.56327 13.7103 9.79192C13.3092 11.0846 14.0748 12.699 16.2711 12.8062C16.2874 12.7832 16.2772 12.4925 16.2772 12.4925C14.4365 12.4925 13.5924 10.5103 15.0422 9.16363C14.2641 6.71906 13.0834 9.16363 12.0854 9.79177C11.5229 10.146 9.96881 9.9347 9.84652 10.6343C9.67128 11.6357 11.4583 11.6217 10.6642 13.805ZM16.9005 17.8432C17.589 17.2401 18.5785 17.2539 19.1452 17.4289C18.775 16.9726 17.9072 16.5981 17.6529 16.5527C17.4587 16.6256 16.9005 17.1983 16.9005 17.8432ZM26.0707 4.30634L24.9995 3L23.928 4.30634L24.9992 5.68096L26.0707 4.30634ZM32.1867 8.25617L31.425 7.32793L30.6637 8.25617L31.4249 9.16348L32.1867 8.25617ZM38.3664 35.0904L37.4008 34.0684L36.4349 35.0902L37.4008 35.9869L38.3664 35.0904ZM19.3356 8.25617L18.574 7.32793L17.8128 8.25617L18.5741 9.16348L19.3356 8.25617ZM17.1534 12.8064H19.9952C22.3844 12.8064 23.4593 11.3398 23.7842 10.0681H26.2153C26.5403 11.3398 27.6146 12.8062 30.0046 12.8062H32.8464C32.8464 12.8062 33.3434 12.1318 33.4681 11.7979C33.9169 10.5962 33.3434 10.0356 32.5066 10.0356L31.4249 11.016L30.3434 10.0359C29.5066 10.0359 28.9331 10.5962 29.3819 11.798C29.4392 11.9516 29.5764 12.1773 29.7063 12.3758C28.6979 12.2373 27.4107 11.5469 27.1285 10.0681C27.1285 10.0681 27.8735 8.88461 28.0607 8.40562C28.7324 6.6831 27.8744 5.9791 26.6196 5.9791L24.9996 7.88324L23.3797 5.9791C22.1249 5.9791 21.2671 6.6831 21.9395 8.40562C22.1257 8.88461 22.8716 10.0682 22.8716 10.0682C22.5886 11.5469 21.3017 12.2373 20.2933 12.3759C20.4238 12.1772 20.5604 11.9516 20.6174 11.7979C21.0654 10.5962 20.4934 10.0357 19.6561 10.0357L18.5743 11.0162L17.4925 10.036C16.6553 10.036 16.0833 10.5964 16.5313 11.7982C16.656 12.132 17.1534 12.8064 17.1534 12.8064ZM46.5329 21.6149C45.9844 21.8925 42.7665 23.3999 38.6445 22.8423C38.6872 22.6457 38.7234 22.4478 38.7531 22.2488C41.4966 21.9206 43.7266 21.4552 45.1478 20.6648C46.7678 19.7631 47.4762 17.6106 46.6586 16.0094C46.6373 15.9691 46.5786 15.9618 46.5493 15.9958C46.1011 16.5116 43.2838 19.5765 38.8448 20.5293C38.8334 20.2993 38.8124 20.0699 38.7818 19.8417C40.9378 18.6191 43.0425 17.2103 44.0451 15.9222C45.5599 13.9746 45.4206 11.4903 43.979 10.2237C43.9715 10.2174 43.9629 10.2126 43.9535 10.2099C43.9441 10.2072 43.9343 10.2064 43.9246 10.2078C43.915 10.2092 43.9057 10.2126 43.8975 10.2178C43.8892 10.223 43.8822 10.23 43.8768 10.2381C43.4208 10.9907 39.1512 17.8911 34.4639 20.8704C34.4067 20.9069 34.349 20.9427 34.2909 20.9778C34.1565 21.0594 34.1418 21.2342 34.256 21.3378C34.7968 21.8276 35.1325 22.5091 35.1325 23.2659C35.1325 24.5818 34.1184 25.6761 32.7778 25.9135C32.0965 26.0455 31.1134 26.0071 30.1686 25.6947C30.1261 25.6811 30.0821 25.7091 30.0821 25.7518V29.9187C30.0821 29.9858 30.1841 30.0025 30.208 29.9384C30.7825 28.4169 32.5013 28.0938 33.2531 28.0938C33.5237 29.7197 34.0069 31.0664 34.6346 31.7913C35.6569 32.9691 37.3262 32.9526 38.0499 32.1383C38.0557 32.1316 38.06 32.1237 38.0624 32.1151C38.0648 32.1066 38.0652 32.0976 38.0637 32.0889C38.0621 32.0801 38.0586 32.0718 38.0534 32.0646C38.0482 32.0574 38.0415 32.0515 38.0336 32.0472C37.6084 31.803 35.1752 30.3089 34.6881 27.8609C34.8793 27.796 35.0662 27.7191 35.2477 27.6307C36.0332 28.9305 37.1764 30.0882 38.0968 30.5305C39.6428 31.2719 41.0581 30.9113 41.6858 29.8257C41.7086 29.7875 41.6806 29.7398 41.6345 29.7356C40.6782 29.6593 37.7434 28.8181 36.4938 26.7689C36.6383 26.6377 36.7763 26.4994 36.9074 26.3547C38.2153 27.3503 40.0639 28.2303 41.3875 28.41C42.9363 28.6206 44.6911 28.1262 44.7336 26.3253C44.7344 26.2893 44.7021 26.2597 44.6638 26.2619C44.1131 26.2952 40.4679 26.4538 37.8704 24.9628C37.9606 24.7912 38.0448 24.6166 38.1227 24.4391C38.1227 24.4391 42.0475 25.3668 43.9072 25.0596C45.7552 24.7546 46.8376 23.377 46.6287 21.663C46.6226 21.6205 46.5727 21.5947 46.5329 21.6149ZM11.8764 24.4384C11.9545 24.616 12.0389 24.7907 12.1294 24.9623C9.5326 26.4526 5.88895 26.2952 5.33577 26.2614C5.29693 26.2593 5.26446 26.2902 5.26537 26.3256C5.30861 28.1259 7.06284 28.6201 8.61164 28.4095C9.93467 28.2299 11.7842 27.3499 13.0916 26.3544C13.2228 26.4989 13.3609 26.6372 13.5052 26.7686C12.255 28.8177 9.32065 29.659 8.36448 29.7353C8.31821 29.7398 8.2912 29.7873 8.3132 29.8256C8.94088 30.9111 10.3562 31.2718 11.903 30.5303C12.8224 30.088 13.9657 28.9304 14.7508 27.6306C14.9326 27.7187 15.1195 27.7956 15.3107 27.8607C14.8237 30.3088 12.3905 31.8025 11.9652 32.0472C11.9574 32.0515 11.9507 32.0575 11.9456 32.0647C11.9404 32.0719 11.9369 32.0802 11.9354 32.0889C11.9338 32.0976 11.9342 32.1066 11.9366 32.1151C11.9389 32.1237 11.9432 32.1316 11.949 32.1383C12.6727 32.9524 14.3426 32.969 15.3649 31.7911C15.9926 31.0662 16.4752 29.7195 16.7456 28.0936C17.4981 28.0936 19.2164 28.4168 19.7907 29.9381C19.8154 30.0023 19.9174 29.9856 19.9174 29.9184V25.7516C19.9174 25.7091 19.8726 25.6809 19.8301 25.6946C18.8856 26.0071 17.9022 26.045 17.2217 25.913C15.8804 25.6759 14.8662 24.5817 14.8662 23.2659C14.8662 22.5094 15.203 21.8271 15.7425 21.3375C15.8578 21.2343 15.8422 21.0596 15.7088 20.9779C15.6502 20.9429 15.5921 20.9071 15.5343 20.8707C10.8497 17.8931 6.58263 10.9974 6.12261 10.24C6.11721 10.2316 6.11008 10.2245 6.1017 10.2191C6.09331 10.2137 6.08388 10.2102 6.07402 10.2087C6.06415 10.2073 6.0541 10.208 6.04453 10.2107C6.03496 10.2135 6.02609 10.2183 6.01852 10.2248C4.57897 11.4921 4.43908 13.9754 5.95404 15.9225C6.95663 17.2106 9.06135 18.6194 11.2166 19.842C11.1862 20.0701 11.1655 20.2994 11.1544 20.5293C6.71903 19.5774 3.9038 16.5177 3.45136 15.9982C3.42101 15.9627 3.36108 15.9698 3.3406 16.0103C2.52432 17.6125 3.23287 19.7632 4.85116 20.6649C6.27251 21.4554 8.5027 21.9207 11.246 22.2489C11.2757 22.4479 11.3118 22.6459 11.3545 22.8425C7.23672 23.3993 4.02047 21.8954 3.46759 21.6156C3.42662 21.5947 3.37686 21.6206 3.3717 21.6639C3.16338 23.3777 4.24502 24.754 6.09302 25.0591C7.9521 25.3664 11.8764 24.4384 11.8764 24.4384ZM37.401 37.3031L35.9708 36.1779C35.4 36.5178 34.9807 37.0573 34.8177 37.6899C33.9574 37.8102 31.6124 37.2893 31.8404 36.9438C34.4106 33.3287 32.4447 31.1762 30.0819 31.2961V33.7236C30.0819 34.5035 29.4015 35.1354 28.5632 35.1354H26.9316C25.7612 35.1354 24.9992 36.3119 24.9992 36.3119C24.9992 36.3119 24.2372 35.1353 23.0668 35.1353H21.4353C20.5963 35.1353 19.9174 34.5034 19.9174 33.7236V31.2961C17.5546 31.1762 15.5871 33.3286 18.1581 36.9437C18.3842 37.2857 15.9736 37.8331 14.8429 37.6947C14.545 37.3858 14.1153 37.191 13.6342 37.191C13.4296 37.1911 13.2267 37.2276 13.0348 37.2987C13.0348 37.2987 8.59176 33.0919 8.51044 33.0508L8.54685 32.9658C8.80023 32.4924 8.41288 31.9765 8.168 32.013C8.45248 31.6716 8.46568 30.1779 6.88745 29.8322C6.93372 30.1323 6.95724 30.7447 6.95724 30.7447C6.95724 30.7447 5.7392 30.0862 5.12745 30.6546C4.59004 31.2908 5.33577 32.4449 5.33577 32.4449C5.33577 32.4449 4.71248 32.4601 4.40524 32.434C4.85693 33.9619 6.37204 33.8537 6.69977 33.5522C6.67852 33.795 7.22625 34.1413 7.69052 33.8637L7.89444 33.7651C7.9304 33.8132 12.2577 37.9017 12.2577 37.9017C12.059 38.1966 11.9644 38.5586 12.0297 38.9446C12.1324 39.5477 12.6346 40.0477 13.2764 40.1775C13.7296 40.2686 14.1556 40.1806 14.4973 39.9806L15.6428 41.0437C15.7445 41.1363 15.8826 41.1939 16.0364 41.183C16.3166 41.1642 16.5265 40.9372 16.5052 40.6767C16.4961 40.5591 16.436 40.4582 16.3532 40.3816C16.335 40.3616 15.1864 39.2953 15.1864 39.2953C16.134 38.6312 17.8993 38.1631 19.3643 38.1631C19.6216 38.1631 19.7427 37.9452 19.6541 37.7317C18.9903 36.1356 20.4173 34.9792 21.8936 35.9205C22.5375 36.3309 23.1916 37.1394 23.6844 38.4884C21.2624 39.0748 18.2212 40.6905 17.606 42.4541C17.369 43.1351 18.1516 44.0633 19.102 44.2501C19.1103 44.2519 19.1189 44.2521 19.1273 44.2506C19.1357 44.2491 19.1437 44.2459 19.1508 44.2413C19.158 44.2366 19.1641 44.2306 19.169 44.2236C19.1738 44.2166 19.1772 44.2087 19.1789 44.2003C19.6754 41.5675 22.5068 39.6055 23.9801 39.2723C24.054 39.4706 24.0298 39.4065 24.1039 39.604C22.4992 40.3629 20.9432 41.9633 20.4989 43.8662C20.2948 44.7376 21.2666 45.5231 22.0688 45.7381C22.1092 45.7487 22.1488 45.7208 22.151 45.6819C22.3035 43.2756 23.366 41.2319 24.318 40.3022C24.344 40.4841 24.3636 40.6668 24.3767 40.85C24.3767 40.85 23.402 43.5655 23.402 45.5469C23.402 46.4688 24.7721 47.1122 24.9743 47.2022C25.2272 47.1122 26.5962 46.4688 26.5962 45.5469C26.5962 43.5654 25.6219 40.8498 25.6219 40.8498C25.6352 40.6666 25.655 40.4839 25.6813 40.3021C26.6327 41.2322 27.6958 43.2748 27.8477 45.6812C27.8485 45.6906 27.8515 45.6998 27.8563 45.708C27.8611 45.7162 27.8676 45.7232 27.8754 45.7286C27.8832 45.7341 27.8921 45.7377 27.9015 45.7393C27.9108 45.741 27.9204 45.7405 27.9296 45.7381C28.7328 45.5231 29.7037 44.7376 29.5005 43.8662C29.0554 41.9636 27.5001 40.3629 25.8956 39.604C25.9689 39.4065 25.9446 39.4705 26.0188 39.2722C27.4928 39.6054 30.3232 41.5673 30.8198 44.2002C30.8234 44.217 30.8336 44.2316 30.848 44.2409C30.8624 44.2502 30.8799 44.2534 30.8967 44.2498C31.8465 44.0632 32.6303 43.1346 32.3919 42.4538C31.7782 40.6902 28.7363 39.0745 26.3139 38.4881C26.8076 37.1393 27.4618 36.3306 28.1057 35.9202C29.5811 34.9789 31.0082 36.1351 30.3444 37.7314C30.2558 37.9449 30.376 38.1628 30.6342 38.1628C32.2915 38.1628 34.3333 38.7613 35.1412 39.5643C35.6575 40.339 36.6114 40.8345 37.688 40.7284C38.9112 40.6086 39.9087 39.6897 40.0464 38.5536C40.1667 37.5583 39.6519 36.6647 38.8314 36.1776L37.401 37.3031ZM26.8607 30.0519C27.3702 29.8629 28.1689 30.0158 28.1417 30.7514C28.1352 30.9183 28.369 30.9183 28.386 30.7479C28.5385 29.6464 27.7943 29.3293 27.0153 29.4582C26.9185 29.0795 26.8393 28.7485 26.7492 28.4204C26.6773 28.1549 26.6509 27.6564 26.9581 27.6564C27.1238 27.6564 27.0572 28.12 27.0416 28.3198C27.0279 28.4951 27.0909 28.6011 27.2332 28.6061C27.3218 28.6098 27.4325 28.4966 27.4987 28.4215C27.9445 27.9173 28.0479 27.1369 27.5257 26.7604C27.0887 26.4444 25.9945 26.6796 25.6938 27.1297C25.6483 26.9601 25.4313 26.6802 25.3272 26.5583C25.226 26.4392 25.1998 26.3578 25.3397 26.2534C25.4057 26.2027 25.6052 26.0042 25.6052 25.7994C25.6052 25.6783 25.5111 25.4547 25.2128 25.4547C24.9773 25.4547 24.7156 25.6176 24.7156 25.9812C24.7156 26.062 24.7353 26.1485 24.7874 26.2417C24.6387 26.2171 24.2345 26.2271 24.0269 26.2784L26.8965 34.1529C27.7179 33.7475 28.3201 33.1055 28.3201 32.4165C28.3201 31.8294 27.4553 32.0242 27.0353 32.4822C26.9003 31.7377 26.7801 31.0503 26.6487 30.3651C26.6129 30.176 26.709 30.1088 26.8607 30.0519ZM22.803 24.7026L23.4059 26.3776C22.8898 26.5005 22.0595 26.8768 22.0595 27.3752C22.0595 28.0389 23.2339 28.471 23.9127 28.4191C23.879 28.5705 23.9179 28.7054 24.0235 28.8287C23.7771 28.8287 23.3122 28.9434 23.1595 29.1079C22.7995 28.7726 22.2363 28.6505 21.9685 28.8545C21.6995 29.0603 21.6915 29.4086 21.9723 29.8025C22.168 30.0751 22.2415 30.3441 22.0215 30.66C22.8397 30.66 22.5384 29.5961 22.859 29.5961C22.8169 29.8025 22.8426 30.0412 22.9357 30.3059C22.9973 30.4819 22.9973 30.6069 22.8917 30.7763C22.6277 31.1984 22.2172 32.1676 22.2727 33.0442C22.0045 33.0427 21.8681 32.9772 21.9626 32.6106C21.9978 32.4744 21.9136 32.3769 21.8021 32.5451C21.6789 32.7305 21.6194 33.0473 21.6194 33.1826C21.6194 33.9631 22.5495 34.1203 22.9042 33.9552C23.9309 34.949 25.9478 34.6838 26.6229 34.3504L23.0721 24.6078C22.9996 24.4237 22.7393 24.5114 22.803 24.7026ZM22.6801 32.728C22.6067 32.327 23.1647 31.6101 23.8746 30.9183C23.7235 31.3692 23.8174 32.146 24.1137 32.4137C23.5988 32.4137 22.9873 32.5103 22.6801 32.728Z" fill="#E7B668"/>
</svg>
