<svg width="30" height="30" viewBox="0 0 30 30" fill="none" xmlns="http://www.w3.org/2000/svg">
<path opacity="0.4" d="M25 19.441C25 22.231 22.76 24.491 19.97 24.501H19.96H10.05C7.27 24.501 5 22.251 5 19.461V19.451C5 19.451 5.006 15.025 5.014 12.799C5.015 12.381 5.495 12.147 5.822 12.407C8.198 14.292 12.447 17.729 12.5 17.774C13.21 18.343 14.11 18.664 15.03 18.664C15.95 18.664 16.85 18.343 17.56 17.763C17.613 17.728 21.767 14.394 24.179 12.478C24.507 12.217 24.989 12.451 24.99 12.868C25 15.077 25 19.441 25 19.441Z" fill="#4A5668"/>
<path d="M24.4759 9.174C23.6099 7.542 21.9059 6.5 20.0299 6.5H10.0499C8.17388 6.5 6.46988 7.542 5.60388 9.174C5.40988 9.539 5.50188 9.994 5.82488 10.252L13.2499 16.191C13.7699 16.611 14.3999 16.82 15.0299 16.82C15.0339 16.82 15.0369 16.82 15.0399 16.82C15.0429 16.82 15.0469 16.82 15.0499 16.82C15.6799 16.82 16.3099 16.611 16.8299 16.191L24.2549 10.252C24.5779 9.994 24.6699 9.539 24.4759 9.174Z" fill="#9DA6B2"/>
</svg>
