<svg width="30" height="30" viewBox="0 0 30 30" fill="none" xmlns="http://www.w3.org/2000/svg">
<path d="M25 25.5H5C4.59 25.5 4.25 25.16 4.25 24.75C4.25 24.34 4.59 24 5 24H25C25.41 24 25.75 24.34 25.75 24.75C25.75 25.16 25.41 25.5 25 25.5Z" fill="#9DA6B2"/>
<path d="M12.75 7.5V25.5H17.25V7.5C17.25 6.4 16.8 5.5 15.45 5.5H14.55C13.2 5.5 12.75 6.4 12.75 7.5Z" fill="#9DA6B2"/>
<path opacity="0.4" d="M6 13.5V25.5H10V13.5C10 12.4 9.6 11.5 8.4 11.5H7.6C6.4 11.5 6 12.4 6 13.5ZM20 18.5V25.5H24V18.5C24 17.4 23.6 16.5 22.4 16.5H21.6C20.4 16.5 20 17.4 20 18.5Z" fill="#9DA6B2"/>
</svg>
