<svg width="32" height="32" viewBox="0 0 32 32" fill="none" xmlns="http://www.w3.org/2000/svg"><g id="solar:settings-bold-duotone"><g id="Group"><path id="Vector" fill-rule="evenodd" clip-rule="evenodd" d="M17.5352 2.84939C17.0912 2.66699 16.5272 2.66699 15.4004 2.66699C14.2736 2.66699 13.7096 2.66699 13.2656 2.84939C12.6745 3.09205 12.204 3.55951 11.9576 4.14899C11.8448 4.41659 11.8016 4.72979 11.7836 5.18459C11.7756 5.51412 11.6837 5.83615 11.5165 6.12026C11.3494 6.40436 11.1125 6.64113 10.8284 6.80819C10.5389 6.96912 10.2134 7.05437 9.88221 7.05604C9.55099 7.05772 9.2247 6.97577 8.93358 6.81779C8.52798 6.60419 8.23398 6.48659 7.94358 6.44819C7.30824 6.36477 6.66567 6.53555 6.15558 6.92339C5.77398 7.21379 5.49198 7.69859 4.92918 8.66699C4.36518 9.63539 4.08438 10.119 4.02078 10.593C3.93678 11.2242 4.10958 11.8626 4.50078 12.3678C4.67838 12.5982 4.92918 12.7914 5.31678 13.0338C5.88918 13.3902 6.25638 13.9974 6.25638 14.667C6.25638 15.3366 5.88918 15.9438 5.31798 16.299C4.92918 16.5426 4.67838 16.7358 4.49958 16.9662C4.30648 17.2157 4.16474 17.501 4.08256 17.8057C4.00038 18.1103 3.97938 18.4282 4.02078 18.741C4.08438 19.2138 4.36518 19.6986 4.92918 20.667C5.49318 21.6354 5.77398 22.119 6.15558 22.4106C6.66438 22.7982 7.30758 22.9686 7.94358 22.8858C8.23398 22.8474 8.52798 22.7298 8.93358 22.5162C9.22485 22.358 9.55136 22.2759 9.88281 22.2776C10.2143 22.2793 10.5399 22.3647 10.8296 22.5258C11.4128 22.8618 11.7584 23.4798 11.7836 24.1494C11.8016 24.6054 11.8448 24.9174 11.9576 25.185C12.2024 25.773 12.6728 26.241 13.2656 26.4846C13.7096 26.667 14.2736 26.667 15.4004 26.667C16.5272 26.667 17.0912 26.667 17.5352 26.4846C18.1262 26.2419 18.5967 25.7745 18.8432 25.185C18.956 24.9174 18.9992 24.6054 19.0172 24.1494C19.0412 23.4798 19.388 22.8606 19.9724 22.5258C20.2619 22.3649 20.5873 22.2796 20.9185 22.2779C21.2498 22.2763 21.5761 22.3582 21.8672 22.5162C22.2728 22.7298 22.5668 22.8474 22.8572 22.8858C23.4932 22.9698 24.1364 22.7982 24.6452 22.4106C25.0268 22.1202 25.3088 21.6354 25.8716 20.667C26.4356 19.6986 26.7164 19.215 26.78 18.741C26.8212 18.4281 26.8 18.1102 26.7176 17.8055C26.6352 17.5009 26.4933 17.2156 26.3 16.9662C26.1224 16.7358 25.8716 16.5426 25.484 16.3002C24.9116 15.9438 24.5444 15.3366 24.5444 14.667C24.5444 13.9974 24.9116 13.3902 25.4828 13.035C25.8716 12.7914 26.1224 12.5982 26.3012 12.3678C26.4943 12.1183 26.636 11.8329 26.7182 11.5283C26.8004 11.2237 26.8214 10.9058 26.78 10.593C26.7164 10.1202 26.4356 9.63539 25.8716 8.66699C25.3076 7.69859 25.0268 7.21499 24.6452 6.92339C24.1351 6.53555 23.4925 6.36477 22.8572 6.44819C22.5668 6.48659 22.2728 6.60419 21.8672 6.81779C21.5759 6.97599 21.2494 7.05805 20.9179 7.05637C20.5865 7.0547 20.2608 6.96933 19.9712 6.80819C19.6873 6.64098 19.4506 6.40415 19.2837 6.12005C19.1168 5.83596 19.0251 5.514 19.0172 5.18459C18.9992 4.72859 18.956 4.41659 18.8432 4.14899C18.7212 3.85708 18.5429 3.59205 18.3185 3.36906C18.094 3.14607 17.8279 2.96949 17.5352 2.84939Z" fill="%238E9CAE"/><path id="Vector_2" d="M19.0286 14.6664C19.0286 16.6548 17.4038 18.2664 15.401 18.2664C13.397 18.2664 11.7734 16.6548 11.7734 14.6664C11.7734 12.678 13.397 11.0664 15.401 11.0664C17.405 11.0664 19.0286 12.678 19.0286 14.6664Z" fill="$23FFFFFF"/></g></g></svg>
