<svg width="24" height="24" viewBox="0 0 24 24" fill="none" xmlns="http://www.w3.org/2000/svg">
<rect width="24" height="24" rx="12" fill="#8E9CAE"/>
<path d="M12 8C9.79333 8 8 9.79333 8 12C8 14.2067 9.79333 16 12 16C14.2067 16 16 14.2067 16 12C16 9.79333 14.2067 8 12 8Z" fill="#F4F4F5"/>
<path d="M11.249 2.875C11.249 2.46079 11.5848 2.125 11.999 2.125C12.4132 2.125 12.749 2.46079 12.749 2.875V5.875C12.749 6.28921 12.4132 6.625 11.999 6.625C11.5848 6.625 11.249 6.28921 11.249 5.875V2.875Z" fill="#F4F4F5"/>
<rect x="8.02441" y="6.96387" width="1.5" height="3.75" rx="0.75" transform="rotate(135 8.02441 6.96387)" fill="#F4F4F5"/>
<path d="M5.87257 11.2768C6.28659 11.2755 6.62338 11.6099 6.62498 12.0239C6.62659 12.4383 6.29181 12.7755 5.87741 12.7768L2.87743 12.7865C2.4634 12.7878 2.12662 12.4534 2.12501 12.0394C2.12341 11.625 2.45819 11.2878 2.87259 11.2865L5.87257 11.2768Z" fill="#F4F4F5"/>
<rect x="6.97705" y="15.9929" width="1.5" height="3.75" rx="0.75" transform="rotate(44.7922 6.97705 15.9929)" fill="#F4F4F5"/>
<path d="M11.3046 18.1298C11.3019 17.716 11.6349 17.3782 12.0488 17.375C12.4633 17.3718 12.8019 17.7056 12.8045 18.1202L12.8239 21.1201C12.8266 21.5339 12.4935 21.8717 12.0797 21.8749C11.6651 21.8781 11.3266 21.5443 11.3239 21.1298L11.3046 18.1298Z" fill="#F4F4F5"/>
<rect x="16.0098" y="17.0093" width="1.5" height="3.75" rx="0.75" transform="rotate(-45.4157 16.0098 17.0093)" fill="#F4F4F5"/>
<path d="M18.1322 12.6676C17.7186 12.6716 17.3798 12.34 17.375 11.9264C17.3702 11.5116 17.7029 11.1717 18.1177 11.1677L21.1175 11.1387C21.5311 11.1347 21.8699 11.4663 21.8747 11.88C21.8795 12.2947 21.5468 12.6346 21.132 12.6386L18.1322 12.6676Z" fill="#F4F4F5"/>
<rect x="16.9883" y="7.96582" width="1.5" height="3.75" rx="0.75" transform="rotate(-135.624 16.9883 7.96582)" fill="#F4F4F5"/>
</svg>
