<svg width="30" height="30" viewBox="0 0 30 30" fill="none" xmlns="http://www.w3.org/2000/svg">
<path fill-rule="evenodd" clip-rule="evenodd" d="M6 20.3698V12.7568H24V20.4308C24 23.5698 22.0241 25.4998 18.8628 25.4998H11.1273C7.99561 25.4998 6 23.5298 6 20.3698ZM10.9594 17.9098C10.5049 17.9308 10.1295 17.5698 10.1098 17.1108C10.1098 16.6508 10.4654 16.2708 10.9199 16.2498C11.3644 16.2498 11.73 16.6008 11.7398 17.0498C11.7596 17.5108 11.404 17.8908 10.9594 17.9098ZM15.0198 17.9098C14.5653 17.9308 14.1899 17.5698 14.1701 17.1108C14.1701 16.6508 14.5258 16.2708 14.9802 16.2498C15.4248 16.2498 15.7903 16.6008 15.8002 17.0498C15.82 17.5108 15.4643 17.8908 15.0198 17.9098ZM19.0505 21.5898C18.596 21.5798 18.2305 21.1998 18.2305 20.7398C18.2206 20.2798 18.5862 19.9008 19.0406 19.8908H19.0505C19.5148 19.8908 19.8902 20.2708 19.8902 20.7398C19.8902 21.2098 19.5148 21.5898 19.0505 21.5898ZM14.1701 20.7398C14.1899 21.1998 14.5653 21.5608 15.0198 21.5398C15.4643 21.5208 15.82 21.1408 15.8002 20.6808C15.7903 20.2308 15.4248 19.8798 14.9802 19.8798C14.5258 19.9008 14.1701 20.2798 14.1701 20.7398ZM10.0999 20.7398C10.1196 21.1998 10.4951 21.5608 10.9495 21.5398C11.3941 21.5208 11.7497 21.1408 11.73 20.6808C11.7201 20.2308 11.3546 19.8798 10.91 19.8798C10.4555 19.9008 10.0999 20.2798 10.0999 20.7398ZM18.2404 17.1008C18.2404 16.6408 18.596 16.2708 19.0505 16.2608C19.4951 16.2608 19.8507 16.6198 19.8705 17.0608C19.8804 17.5208 19.5247 17.9008 19.0801 17.9098C18.6257 17.9198 18.2503 17.5698 18.2404 17.1108V17.1008Z" fill="#4A5668"/>
<path d="M6.00293 12.7572C6.01577 12.1702 6.06517 11.0052 6.15803 10.6302C6.63224 8.52123 8.24256 7.18123 10.5444 6.99023H19.4555C21.7376 7.19123 23.3677 8.54023 23.8419 10.6302C23.9338 10.9952 23.9832 12.1692 23.996 12.7572H6.00293Z" fill="#9DA6B2"/>
<path d="M11.3046 10.09C11.7393 10.09 12.0654 9.761 12.0654 9.32V6.271C12.0654 5.83 11.7393 5.5 11.3046 5.5C10.87 5.5 10.5439 5.83 10.5439 6.271V9.32C10.5439 9.761 10.87 10.09 11.3046 10.09Z" fill="#4A5668"/>
<path d="M18.6953 10.09C19.1201 10.09 19.456 9.761 19.456 9.32V6.271C19.456 5.83 19.1201 5.5 18.6953 5.5C18.2606 5.5 17.9346 5.83 17.9346 6.271V9.32C17.9346 9.761 18.2606 10.09 18.6953 10.09Z" fill="#4A5668"/>
</svg>
